<?xml version="1.0" encoding="UTF-8" standalone="no"?>
<!DOCTYPE svg PUBLIC "-//W3C//DTD SVG 1.1//EN" "http://www.w3.org/Graphics/SVG/1.1/DTD/svg11.dtd">
<svg width="100%" height="100%" viewBox="0 0 67 67" version="1.1" xmlns="http://www.w3.org/2000/svg" xmlns:xlink="http://www.w3.org/1999/xlink" xml:space="preserve" xmlns:serif="http://www.serif.com/" style="fill-rule:evenodd;clip-rule:evenodd;stroke-linecap:round;stroke-linejoin:round;stroke-miterlimit:1.5;">
    <g id="thick-dark" serif:id="thick dark" transform="matrix(2.0625,0,0,2.0625,0.257812,0.257812)">
        <g transform="matrix(1.06906,0,0,1.06838,-1.10488,-1.09408)">
            <rect x="0" y="0" width="32" height="32" style="fill:rgb(40,40,40);"/>
        </g>
        <g transform="matrix(0.12042,0,0,0.12042,-18.0566,-2.34093)">
            <g transform="matrix(0.220859,0,0,0.220859,116.337,167.578)">
                <circle cx="655" cy="333" r="163" style="fill:none;stroke:rgb(180,180,180);stroke-width:72.92px;"/>
            </g>
            <path d="M296,249.124L310.583,177.391" style="fill:none;stroke:rgb(180,180,180);stroke-width:16.11px;"/>
            <path d="M175.548,184.195L243.255,142.081" style="fill:none;stroke:rgb(180,180,180);stroke-width:16.11px;"/>
            <g transform="matrix(-0.220859,0,0,0.220859,338.663,141.578)">
                <circle cx="655" cy="333" r="163" style="fill:none;stroke:rgb(180,180,180);stroke-width:72.92px;"/>
            </g>
            <g transform="matrix(-0.115345,0,0,0.115345,268.935,176.91)">
                <path d="M516.242,423.572C515.934,446.237 502.099,448.273 515.66,466.402C529.675,485.139 545.815,505.236 584.494,514.558C584.955,514.669 596.258,517.203 596.784,516.982C609.792,511.504 621.356,502.949 634.364,497.472L615.054,459.951C614.592,459.053 569.588,431.729 565.61,429.314C563.147,427.819 561.306,424.716 558.433,424.497C544.407,423.428 530.268,424.641 516.242,423.572ZM820.176,319.211C825.536,306.096 835.821,295.374 841.181,282.258C841.534,281.394 833.446,239.288 810.411,210.507C784.355,177.952 747.716,163.776 747.7,163.78C733.91,166.787 720.834,172.605 707.044,175.612C711.575,188.941 714.208,202.866 718.739,216.195C719.969,219.815 725.788,215.712 757.49,256.056C783.733,289.452 781.243,296.868 783.489,298.3C795.358,305.867 808.307,311.644 820.176,319.211Z" style="fill:rgb(180,180,180);"/>
            </g>
            <g transform="matrix(0.115345,1.41256e-17,1.41256e-17,-0.115345,184.486,281.578)">
                <path d="M820.176,319.211C825.536,306.096 835.821,295.374 841.181,282.258C841.534,281.394 833.446,239.288 810.411,210.507C784.355,177.952 747.716,163.776 747.7,163.78C733.91,166.787 720.834,172.605 707.044,175.612C711.575,188.941 714.208,202.866 718.739,216.195C719.969,219.815 725.788,215.712 757.49,256.056C783.733,289.452 781.243,296.868 783.489,298.3C795.358,305.867 808.307,311.644 820.176,319.211Z" style="fill:rgb(180,180,180);"/>
            </g>
            <path d="M272.919,165.032C276.069,158.16 283.01,153.383 291.058,153.383C302.064,153.383 311,162.319 311,173.325C311,174.721 310.856,176.083 310.583,177.398" style="fill:none;stroke:rgb(180,180,180);stroke-width:16.11px;"/>
            <path d="M272.956,164.951C273.559,163.049 273.885,161.023 273.885,158.922C273.885,147.916 264.949,138.98 253.942,138.98C250.011,138.98 246.345,140.12 243.255,142.087" style="fill:none;stroke:rgb(180,180,180);stroke-width:16.11px;"/>
        </g>
        <g transform="matrix(0.0231513,0.00457698,-0.00587129,0.0296982,10.8299,-5.11353)">
            <path d="M417.312,271.505C419.775,278.605 422.606,290.745 419.494,293.946C416.382,297.147 323.387,229.396 270.564,204.848C207.459,175.523 118.884,205.484 57.732,236.107C33.317,248.333 -10.197,275.708 -48.269,322.832C-103.504,391.199 -151.683,483.773 -150.164,487.219C-148.803,490.307 -155.22,480.159 -154.27,476.43C-145.907,443.605 -127.19,370.99 -76.707,303.972C-40.986,256.55 20.704,210.38 61.358,189.953C129.175,155.878 223.674,143.049 278.528,156.915C316.078,166.407 341.878,187.939 376.748,218.993C376.748,218.993 503.39,175.895 548.649,168.954C693.337,146.766 748.275,170.077 764.147,174.745C874.675,207.252 1031.88,391.334 988.291,395.421C974.196,396.743 925.664,376.14 905.19,372.1C892.188,369.534 877.749,372.31 865.444,371.18C847.352,387.124 806.968,405.229 718.731,433.187C623.574,463.337 548.255,447.723 548.819,438.365C528.813,483.12 466.271,519.453 367.433,504.46C361.363,503.539 356.249,502.671 351.703,501.839C349.74,504.338 340.917,541.022 321.389,553.076C317.261,555.625 290.228,579.657 248.46,534.369C236.084,520.95 158.561,442.847 152.887,352.773C148.81,288.049 154.15,241.309 215.991,234.724C244.351,231.704 326.113,254.202 321.702,262.706C320.142,265.713 314.471,266.834 310.453,267.113C298.335,267.953 277.826,268.928 248.99,267.748C165.42,264.329 218.271,411.698 270.832,429.11C278.868,423.092 289.103,390.553 299.518,400.224C307.531,407.665 333.913,429.559 359.039,433.09C392.779,437.831 427.456,422.08 442.819,413.889C450.119,409.997 465.14,398.553 468.004,386.48C471.132,373.294 461.587,334.773 461.587,334.773C461.587,334.773 492.255,339.615 510.759,349.695C539.592,360.568 558.284,408.547 634.583,400.012C695.729,393.172 827.522,340.746 832.995,318.481C836.107,305.82 855.513,316.16 870.51,318.078C822.796,274.193 774.047,225.857 711.983,216.299C634.044,204.297 420.171,241.959 402.878,246.063C408.405,253.684 414.542,263.524 417.312,271.505Z" style="fill:rgb(146,146,146);"/>
        </g>
    </g>
    <g id="thick-bright" serif:id="thick bright" transform="matrix(2.0625,0,0,2.0625,0.257812,0.257812)">
        <g transform="matrix(1.06906,0,0,1.06838,-1.10488,-1.09408)">
            <rect x="0" y="0" width="32" height="32" style="fill:rgb(137,137,137);"/>
            <path d="M32.026,0C32.038,3.145 32.089,31.976 32.056,32.032C32.007,32.117 31.971,32.066 27.24,32.054L-0.032,32.019C-0.036,29.455 -0.082,0.011 -0.056,-0.033C-0.045,-0.053 -0.023,-0.065 -0,-0.065C2.561,-0.064 31.984,-0.047 32.017,-0.02C32.017,-0.02 32.032,-0.002 32.026,0ZM31.978,0.016C31.864,0.05 31.808,0.025 31.361,0.026L0.065,0.065L0.034,31.966C13.597,31.984 13.596,31.981 31.935,31.935L31.974,0.026C31.974,0.023 31.975,0.019 31.978,0.016Z" style="fill:rgb(137,137,137);"/>
        </g>
        <g transform="matrix(0.12042,0,0,0.12042,-18.0566,-2.34093)">
            <g transform="matrix(0.220859,0,0,0.220859,116.337,167.578)">
                <circle cx="655" cy="333" r="163" style="fill:none;stroke:white;stroke-width:72.92px;"/>
            </g>
            <path d="M296,249.124L310.583,177.391" style="fill:none;stroke:white;stroke-width:16.11px;"/>
            <path d="M175.548,184.195L243.255,142.081" style="fill:none;stroke:white;stroke-width:16.11px;"/>
            <g transform="matrix(-0.220859,0,0,0.220859,338.663,141.578)">
                <circle cx="655" cy="333" r="163" style="fill:none;stroke:white;stroke-width:72.92px;"/>
            </g>
            <g transform="matrix(-0.115345,0,0,0.115345,268.935,176.91)">
                <path d="M516.242,423.572C515.934,446.237 502.099,448.273 515.66,466.402C529.675,485.139 545.815,505.236 584.494,514.558C584.955,514.669 596.258,517.203 596.784,516.982C609.792,511.504 621.356,502.949 634.364,497.472L615.054,459.951C614.592,459.053 569.588,431.729 565.61,429.314C563.147,427.819 561.306,424.716 558.433,424.497C544.407,423.428 530.268,424.641 516.242,423.572ZM820.176,319.211C825.536,306.096 835.821,295.374 841.181,282.258C841.534,281.394 833.446,239.288 810.411,210.507C784.355,177.952 747.716,163.776 747.7,163.78C733.91,166.787 720.834,172.605 707.044,175.612C711.575,188.941 714.208,202.866 718.739,216.195C719.969,219.815 725.788,215.712 757.49,256.056C783.733,289.452 781.243,296.868 783.489,298.3C795.358,305.867 808.307,311.644 820.176,319.211Z" style="fill:white;"/>
            </g>
            <g transform="matrix(0.115345,1.41256e-17,1.41256e-17,-0.115345,184.486,281.578)">
                <path d="M820.176,319.211C825.536,306.096 835.821,295.374 841.181,282.258C841.534,281.394 833.446,239.288 810.411,210.507C784.355,177.952 747.716,163.776 747.7,163.78C733.91,166.787 720.834,172.605 707.044,175.612C711.575,188.941 714.208,202.866 718.739,216.195C719.969,219.815 725.788,215.712 757.49,256.056C783.733,289.452 781.243,296.868 783.489,298.3C795.358,305.867 808.307,311.644 820.176,319.211Z" style="fill:white;"/>
            </g>
            <path d="M272.919,165.032C276.069,158.16 283.01,153.383 291.058,153.383C302.064,153.383 311,162.319 311,173.325C311,174.721 310.856,176.083 310.583,177.398" style="fill:none;stroke:white;stroke-width:16.11px;"/>
            <path d="M272.956,164.951C273.559,163.049 273.885,161.023 273.885,158.922C273.885,147.916 264.949,138.98 253.942,138.98C250.011,138.98 246.345,140.12 243.255,142.087" style="fill:none;stroke:white;stroke-width:16.11px;"/>
        </g>
        <g transform="matrix(0.0231513,0.00457698,-0.00587129,0.0296982,10.8299,-5.11353)">
            <path d="M417.312,271.505C419.775,278.605 422.606,290.745 419.494,293.946C416.382,297.147 323.387,229.396 270.564,204.848C207.459,175.523 118.884,205.484 57.732,236.107C33.317,248.333 -10.197,275.708 -48.269,322.832C-103.504,391.199 -151.683,483.773 -150.164,487.219C-148.803,490.307 -155.22,480.159 -154.27,476.43C-145.907,443.605 -127.19,370.99 -76.707,303.972C-40.986,256.55 20.704,210.38 61.358,189.953C129.175,155.878 223.674,143.049 278.528,156.915C316.078,166.407 341.878,187.939 376.748,218.993C376.748,218.993 503.39,175.895 548.649,168.954C693.337,146.766 748.275,170.077 764.147,174.745C874.675,207.252 1031.88,391.334 988.291,395.421C974.196,396.743 925.664,376.14 905.19,372.1C892.188,369.534 877.749,372.31 865.444,371.18C847.352,387.124 806.968,405.229 718.731,433.187C623.574,463.337 548.255,447.723 548.819,438.365C528.813,483.12 466.271,519.453 367.433,504.46C361.363,503.539 356.249,502.671 351.703,501.839C349.74,504.338 340.917,541.022 321.389,553.076C317.261,555.625 290.228,579.657 248.46,534.369C236.084,520.95 158.561,442.847 152.887,352.773C148.81,288.049 154.15,241.309 215.991,234.724C244.351,231.704 326.113,254.202 321.702,262.706C320.142,265.713 314.471,266.834 310.453,267.113C298.335,267.953 277.826,268.928 248.99,267.748C165.42,264.329 218.271,411.698 270.832,429.11C278.868,423.092 289.103,390.553 299.518,400.224C307.531,407.665 333.913,429.559 359.039,433.09C392.779,437.831 427.456,422.08 442.819,413.889C450.119,409.997 465.14,398.553 468.004,386.48C471.132,373.294 461.587,334.773 461.587,334.773C461.587,334.773 492.255,339.615 510.759,349.695C539.592,360.568 558.284,408.547 634.583,400.012C695.729,393.172 827.522,340.746 832.995,318.481C836.107,305.82 855.513,316.16 870.51,318.078C822.796,274.193 774.047,225.857 711.983,216.299C634.044,204.297 420.171,241.959 402.878,246.063C408.405,253.684 414.542,263.524 417.312,271.505Z" style="fill:rgb(188,188,188);"/>
        </g>
    </g>
</svg>
